HIERARCHY
ROOT Hips
{
	OFFSET 0.000000 0.000000 0.000000
	CHANNELS 6 Xposition Yposition Zposition Zrotation Yrotation Xrotation 
	JOINT LHipJoint
	{
		OFFSET 0.000000 0.000000 0.000000
		CHANNELS 3 Zrotation Yrotation Xrotation
		JOINT LeftUpLeg
		{
			OFFSET 1.363060 -1.794630 0.839290
			CHANNELS 3 Zrotation Yrotation Xrotation
			JOINT LeftLeg
			{
				OFFSET 2.448110 -6.726130 0.000000
				CHANNELS 3 Zrotation Yrotation Xrotation
				JOINT LeftFoot
				{
					OFFSET 2.562200 -7.039590 0.000000
					CHANNELS 3 Zrotation Yrotation Xrotation
					JOINT LeftToeBase
					{
						OFFSET 0.157640 -0.433110 2.322550
						CHANNELS 3 Zrotation Yrotation Xrotation
						End Site
						{
							OFFSET 0.000000 0.000000 0.000000
						}
					}
				}
			}
		}
	}
	JOINT RHipJoint
	{
		OFFSET 0.000000 0.000000 0.000000
		CHANNELS 3 Zrotation Yrotation Xrotation
		JOINT RightUpLeg
		{
			OFFSET -1.305520 -1.794630 0.839290
			CHANNELS 3 Zrotation Yrotation Xrotation
			JOINT RightLeg
			{
				OFFSET -2.542530 -6.985550 0.000000
				CHANNELS 3 Zrotation Yrotation Xrotation
				JOINT RightFoot
				{
					OFFSET -2.568260 -7.056230 0.000000
					CHANNELS 3 Zrotation Yrotation Xrotation
					JOINT RightToeBase
					{
						OFFSET -0.164730 -0.452590 2.363150
						CHANNELS 3 Zrotation Yrotation Xrotation
						End Site
						{
							OFFSET 0.000000 0.000000 0.000000
						}
					}
				}
			}
		}
	}
	JOINT LowerBack
	{
		OFFSET 0.000000 0.000000 0.000000
		CHANNELS 3 Zrotation Yrotation Xrotation
		JOINT Spine
		{
			OFFSET 0.028270 2.035590 -0.193380
			CHANNELS 3 Zrotation Yrotation Xrotation
			JOINT Spine1
			{
				OFFSET 0.056720 2.048850 -0.042750
				CHANNELS 3 Zrotation Yrotation Xrotation
				JOINT Neck
				{
					OFFSET 0.000000 0.000000 0.000000
					CHANNELS 3 Zrotation Yrotation Xrotation
					JOINT Neck1
					{
						OFFSET -0.054170 1.746240 0.172020
						CHANNELS 3 Zrotation Yrotation Xrotation
						JOINT Head
						{
							OFFSET 0.104070 1.761360 -0.123970
							CHANNELS 3 Zrotation Yrotation Xrotation
							End Site
							{
								OFFSET 0.000000 0.000000 0.000000
							}
						}
					}
				}
				JOINT LeftShoulder
				{
					OFFSET 0.000000 0.000000 0.000000
					CHANNELS 3 Zrotation Yrotation Xrotation
					JOINT LeftArm
					{
						OFFSET 3.362410 1.200890 -0.311210
						CHANNELS 3 Zrotation Yrotation Xrotation
						JOINT LeftForeArm
						{
							OFFSET 4.983000 -0.000000 -0.000000
							CHANNELS 3 Zrotation Yrotation Xrotation
							JOINT LeftHand
							{
								OFFSET 3.483560 -0.000000 -0.000000
								CHANNELS 3 Zrotation Yrotation Xrotation
								JOINT LeftFingerBase
								{
									OFFSET 0.000000 0.000000 0.000000
									CHANNELS 3 Zrotation Yrotation Xrotation
									JOINT LeftHandIndex1
									{
										OFFSET 0.715260 -0.000000 -0.000000
										CHANNELS 3 Zrotation Yrotation Xrotation
										End Site
										{
											OFFSET 0.000000 0.000000 0.000000
										}
									}
								}
								JOINT LThumb
								{
									OFFSET 0.000000 0.000000 0.000000
									CHANNELS 3 Zrotation Yrotation Xrotation
									End Site
									{
										OFFSET 0.000000 0.000000 0.000000
									}
								}
							}
						}
					}
				}
				JOINT RightShoulder
				{
					OFFSET 0.000000 0.000000 0.000000
					CHANNELS 3 Zrotation Yrotation Xrotation
					JOINT RightArm
					{
						OFFSET -3.136600 1.374050 -0.404650
						CHANNELS 3 Zrotation Yrotation Xrotation
						JOINT RightForeArm
						{
							OFFSET -5.241900 -0.000000 -0.000000
							CHANNELS 3 Zrotation Yrotation Xrotation
							JOINT RightHand
							{
								OFFSET -3.444170 -0.000000 -0.000000
								CHANNELS 3 Zrotation Yrotation Xrotation
								JOINT RightFingerBase
								{
									OFFSET 0.000000 0.000000 0.000000
									CHANNELS 3 Zrotation Yrotation Xrotation
									JOINT RightHandIndex1
									{
										OFFSET -0.622530 -0.000000 -0.000000
										CHANNELS 3 Zrotation Yrotation Xrotation
										End Site
										{
											OFFSET 0.000000 0.000000 0.000000
										}
									}
								}
								JOINT RThumb
								{
									OFFSET 0.000000 0.000000 0.000000
									CHANNELS 3 Zrotation Yrotation Xrotation
									End Site
									{
										OFFSET 0.000000 0.000000 0.000000
									}
								}
							}
						}
					}
				}
			}
		}
	}
}
MOTION
Frames: 12
Frame Time: 0.008333
-0.195341 18.141131 0.955119 2.820474 -24.207278 2.117443 -3.758520 4.916444 5.726438 -7.958753 -6.615709 -13.949946 1.193954 7.911434 25.647959 -3.528972 13.207258 -1.871204 0.691300 -5.315200 -14.809800 -1.790147 -6.083620 4.284336 19.054590 18.363154 -7.655467 -2.298268 -7.309934 27.325249 4.108233 -15.921942 -13.420429 -0.003300 -0.371200 1.020000 2.876237 2.672609 -5.022920 -6.428963 2.613284 13.064689 1.928967 1.706524 -5.580231 -4.086318 0.590481 -18.276248 9.321894 0.093865 12.696948 3.546000 0.638800 5.153300 -6.204077 -3.311672 -0.534806 -58.289062 -24.881316 2.948122 15.788737 -23.778130 -3.997266 0.787101 -1.765889 -60.159696 16.951261 25.537161 8.434800 -7.125000 0.000000 0.000000 -13.460700 57.662100 -4.223600 8.405173 3.547878 -0.544390 57.481302 17.619490 40.428856 -19.326878 24.889409 -5.835561 0.274592 1.386447 -18.113253 -13.544831 -0.778876 0.517600 7.125000 0.000000 0.000000 9.901000 -31.981200 3.195900 
-0.222080 18.142492 0.936256 2.774559 -23.995040 2.090014 -3.737149 4.910812 5.709826 -7.799231 -6.572531 -14.020387 1.207455 7.932300 25.668600 -3.532561 13.219107 -1.466890 0.775000 -5.621000 -15.688500 -1.790894 -6.081533 4.277435 19.247181 18.219528 -7.648239 -2.310419 -7.321738 27.378667 4.128580 -15.981701 -13.399955 -0.003200 -0.363800 0.999500 2.814306 2.681497 -4.902135 -6.348860 2.621650 12.903825 1.941012 1.725118 -5.675854 -3.924448 0.656882 -18.519726 9.107959 0.160934 13.094328 3.487300 0.675200 5.260900 -6.153969 -3.418263 -0.518597 -57.456870 -26.045390 2.630310 15.928234 -23.933354 -4.066351 0.797594 -1.770059 -60.778201 17.040367 25.646707 8.516200 -7.125000 0.000000 0.000000 -13.409900 57.788600 -4.248400 8.284313 3.670843 -0.470928 56.897045 19.011426 40.006759 -19.766517 25.366844 -6.083501 0.235257 1.400936 -19.297607 -13.312333 -0.672159 0.484900 7.125000 0.000000 0.000000 10.080000 -31.878300 3.280600 
-0.247652 18.142589 0.931199 2.912218 -23.960940 2.012313 -3.757792 4.904170 5.703956 -7.823461 -6.642853 -13.932127 1.198935 7.914382 25.619510 -3.543604 13.252783 -1.423613 0.773500 -5.615700 -15.673300 -1.807519 -6.088889 4.270294 19.220155 18.199708 -7.647135 -2.327180 -7.354137 27.471872 4.109969 -15.930809 -13.399705 -0.002300 -0.307600 0.845200 2.798380 2.787252 -5.052632 -6.529063 2.748596 12.834124 1.953007 1.790129 -5.575388 -3.676015 0.731190 -18.657609 8.904165 0.228194 13.375168 3.419000 0.709800 5.339200 -6.067138 -3.539284 -0.513156 -56.566382 -27.218758 2.481503 16.120685 -24.149857 -4.163656 0.816494 -1.790911 -61.622397 17.456904 26.064103 8.860400 -7.125000 0.000000 0.000000 -13.172400 58.300600 -4.334300 8.169682 3.813219 -0.402916 56.330605 20.466559 39.446444 -20.169763 25.766969 -6.302804 0.209214 1.391900 -20.669311 -13.139465 -0.254362 0.371900 7.125000 0.000000 0.000000 10.164500 -31.434200 3.419200 
-0.273127 18.141617 0.925852 3.006956 -23.870474 1.868910 -3.764514 4.911275 5.711570 -7.831804 -6.740855 -13.757152 1.201332 7.910478 25.618374 -3.565667 13.322452 -1.401228 0.812100 -5.750800 -16.063200 -1.816010 -6.097939 4.270938 19.242178 18.088414 -7.561299 -2.339664 -7.379293 27.552225 4.063127 -15.808290 -13.448759 -0.003700 -0.393900 1.082400 2.759898 2.859765 -5.142660 -6.579785 2.836623 12.828451 1.948540 1.838097 -5.511148 -3.606193 0.804119 -18.795564 8.862041 0.308645 13.571467 3.411200 0.754400 5.396600 -5.979108 -3.653814 -0.516850 -55.612646 -28.277861 2.591747 16.353390 -24.426863 -4.279825 0.827038 -1.798833 -63.003995 17.993597 25.969191 9.115100 -7.125000 0.000000 0.000000 -12.488700 58.311500 -4.107900 8.037299 3.938999 -0.346702 55.665105 21.876377 38.889357 -20.643281 26.260397 -6.577633 0.160951 1.387594 -22.163710 -12.711992 0.105338 0.272700 7.125000 0.000000 0.000000 10.470700 -31.055200 3.622100 
-0.298991 18.140645 0.913892 3.017069 -23.814091 1.777918 -3.760812 4.917676 5.713053 -7.764726 -6.758910 -13.653209 1.202243 7.906546 25.585927 -3.619475 13.495239 -1.273359 0.882900 -5.989700 -16.754700 -1.822396 -6.100896 4.263089 19.363250 18.031934 -7.517977 -2.356845 -7.405181 27.645319 4.040481 -15.752011 -13.471758 -0.003100 -0.361700 0.993800 2.726149 2.931898 -5.107868 -6.550219 2.927849 12.728556 1.933003 1.893235 -5.543222 -3.611283 0.862547 -18.895702 8.870524 0.375661 13.747799 3.422700 0.792700 5.440200 -5.906187 -3.763189 -0.516406 -54.693992 -29.330287 2.493837 16.528823 -24.624903 -4.364074 0.827769 -1.780797 -64.250393 18.021926 25.411618 8.958500 -7.125000 0.000000 0.000000 -12.113700 57.732900 -3.812900 7.910239 4.053694 -0.293250 55.033533 23.244974 38.138123 -21.113526 26.747214 -6.860796 0.072817 1.402422 -23.519918 -11.832629 0.048801 0.272200 7.125000 0.000000 0.000000 11.209000 -31.122000 3.867700 
-0.324758 18.138992 0.901738 2.976044 -23.749259 1.762612 -3.750845 4.914279 5.699648 -7.607665 -6.871757 -13.646813 1.198995 7.909134 25.569469 -3.626630 13.515423 -1.296055 0.852900 -5.890000 -16.465600 -1.830070 -6.099635 4.255465 19.527799 17.961935 -7.516629 -2.371377 -7.422922 27.722232 4.020180 -15.705928 -13.508232 -0.003000 -0.353000 0.969900 2.746047 3.017137 -5.086707 -6.533160 3.035669 12.618459 1.893156 1.955057 -5.566718 -3.528869 0.902336 -19.011487 8.824870 0.414135 13.854526 3.406200 0.815400 5.472400 -5.832775 -3.872841 -0.518629 -53.781295 -30.464448 2.321054 16.687188 -24.790068 -4.436101 0.824768 -1.740411 -65.263427 17.479262 24.618116 8.441400 -7.125000 0.000000 0.000000 -12.259100 56.789200 -3.579200 7.780897 4.174244 -0.240607 54.397423 24.629355 37.230393 -21.565235 27.189958 -7.119202 0.010156 1.445624 -24.930864 -11.397299 -0.347043 0.356700 7.125000 0.000000 0.000000 11.614500 -31.556500 3.889000 
-0.350427 18.139186 0.895029 3.149912 -23.571710 1.661272 -3.766619 4.904404 5.686400 -7.664393 -6.962110 -13.572861 1.195792 7.899296 25.554028 -3.613136 13.471807 -1.218695 0.815700 -5.763100 -16.098700 -1.839358 -6.103714 4.251157 19.451001 17.824918 -7.508712 -2.377908 -7.448317 27.792131 3.946414 -15.533209 -13.678158 -0.007000 -0.539700 1.483000 2.629811 3.066136 -5.127401 -6.644322 3.091196 12.499699 1.927708 1.990085 -5.557767 -3.587160 0.951483 -19.128604 8.971282 0.447147 14.102924 3.455600 0.846500 5.538900 -5.733474 -3.994123 -0.518110 -52.896972 -31.695229 1.799414 16.787162 -24.871536 -4.482245 0.824325 -1.728281 -65.750558 17.201716 24.380762 8.235800 -7.125000 0.000000 0.000000 -12.418700 56.481000 -3.533800 7.660859 4.290297 -0.190330 53.685179 25.997121 36.477834 -22.027019 27.630819 -7.372901 0.003678 1.494976 -26.703440 -11.728911 -0.570368 0.424000 7.125000 0.000000 0.000000 11.340700 -31.818800 3.721100 
-0.376000 18.138797 0.893376 3.379451 -23.425425 1.489968 -3.796648 4.906231 5.695938 -7.804707 -6.929507 -13.392573 1.187662 7.872109 25.489396 -3.612109 13.471691 -0.970595 0.810100 -5.743700 -16.042500 -1.855147 -6.112792 4.246323 19.319459 17.669151 -7.458484 -2.386142 -7.479007 27.868079 3.872253 -15.344690 -13.788427 -0.015500 -0.804800 2.211800 2.570874 3.112128 -5.232835 -6.860849 3.144268 12.450257 1.933556 2.015928 -5.510265 -3.674785 1.034049 -19.343998 9.205487 0.504397 14.501134 3.535100 0.900000 5.653700 -5.609601 -4.124087 -0.521894 -52.001389 -33.018916 0.858328 16.894005 -24.967296 -4.544337 0.830940 -1.821881 -66.110876 18.984005 25.502800 9.494600 -7.125000 0.000000 0.000000 -11.023200 58.015100 -3.539000 7.542315 4.405095 -0.144362 53.000554 27.369621 35.766128 -22.512762 28.085576 -7.644435 -0.003333 1.546087 -28.721061 -12.096082 -0.756256 0.487200 7.125000 0.000000 0.000000 11.025500 -32.042400 3.553700 
-0.403128 18.136366 0.889778 3.462500 -23.255331 1.326372 -3.807185 4.917787 5.705964 -7.773020 -7.031875 -13.203040 1.169772 7.835926 25.370285 -3.641297 13.563601 -0.781345 0.786600 -5.661800 -15.806200 -1.863869 -6.120975 4.245692 19.371450 17.544984 -7.329254 -2.400050 -7.506115 27.963147 3.821836 -15.242735 -13.959487 -0.023100 -0.980400 2.695000 2.543375 3.143192 -5.255531 -6.935928 3.181975 12.427695 1.918148 2.038004 -5.522209 -3.683221 1.108549 -19.619363 9.345632 0.550896 14.904062 3.582200 0.946500 5.776600 -5.500942 -4.242486 -0.534479 -51.084549 -34.205277 0.287387 17.138921 -25.257914 -4.678157 0.836826 -1.932584 -67.007522 21.599874 26.523617 11.249800 -7.125000 0.000000 0.000000 -8.557700 59.664800 -3.077600 7.409243 4.517346 -0.101936 52.332111 28.760192 34.858560 -22.973140 28.504920 -7.909812 -0.042105 1.587562 -30.721687 -12.016474 -0.972979 0.541000 7.125000 0.000000 0.000000 11.093000 -32.287400 3.509500 
-0.428214 18.135102 0.884139 3.629678 -23.008181 1.222231 -3.831910 4.911599 5.690263 -7.806178 -7.242956 -13.078351 1.146156 7.793690 25.246752 -3.661833 13.624776 -0.715728 0.764600 -5.583800 -15.581500 -1.873424 -6.124389 4.239082 19.308935 17.358195 -7.349995 -2.413469 -7.538856 28.050631 3.796292 -15.193971 -14.045015 -0.022800 -0.974000 2.677400 2.460873 3.190539 -5.261800 -7.088219 3.237076 12.285140 1.941866 2.071449 -5.546389 -3.669858 1.118086 -19.706403 9.435053 0.527067 15.090822 3.602400 0.947600 5.829800 -5.392881 -4.353195 -0.549226 -50.135536 -35.267386 0.278723 17.430174 -25.601085 -4.823697 0.849385 -1.927097 -67.917371 21.744884 26.380034 11.276300 -7.125000 0.000000 0.000000 -8.296500 59.539500 -2.958000 7.288786 4.625394 -0.065867 51.599511 30.060065 33.719094 -23.383100 28.868288 -8.145841 -0.074616 1.594746 -32.656840 -11.801460 -0.768312 0.486000 7.125000 0.000000 0.000000 11.218100 -32.072000 3.609800 
-0.454855 18.136075 0.878596 3.755077 -22.738953 1.182761 -3.850463 4.906324 5.676831 -7.814248 -7.414158 -12.973721 1.120276 7.750180 25.116344 -3.667122 13.637265 -0.650752 0.767300 -5.593500 -15.609400 -1.880675 -6.126372 4.231177 19.286448 17.207333 -7.392793 -2.428262 -7.570344 28.138119 3.792254 -15.205858 -14.120155 -0.021900 -0.954800 2.624500 2.400482 3.221790 -5.311446 -7.206743 3.267761 12.122150 1.959037 2.090987 -5.541259 -3.622455 1.106146 -19.631440 9.409274 0.503797 15.076847 3.586500 0.933700 5.816500 -5.292781 -4.466208 -0.571577 -49.129345 -36.427531 -0.132027 17.563059 -25.721982 -4.886695 0.877689 -1.852879 -68.407334 19.909489 25.998600 10.155100 -7.125000 0.000000 0.000000 -10.199000 58.719400 -3.443600 7.160981 4.739350 -0.037962 50.830919 31.296971 32.565652 -23.832738 29.273669 -8.413836 -0.087605 1.557306 -34.604729 -11.533368 0.129644 0.268200 7.125000 0.000000 0.000000 11.297000 -31.112400 3.901800 
-0.483831 18.135686 0.870818 3.659036 -22.503977 1.137577 -3.833028 4.920473 5.685301 -7.617610 -7.407627 -12.892698 1.101764 7.723925 24.989987 -3.681976 13.686839 -0.412163 0.820000 -5.777900 -16.141400 -1.883310 -6.125993 4.223125 19.543607 17.090661 -7.291735 -2.447266 -7.589855 28.234264 3.814830 -15.315930 -14.268504 -0.023300 -0.985900 2.709900 2.446323 3.243281 -5.267027 -7.129497 3.294423 12.012417 1.895053 2.109479 -5.604454 -3.611006 1.100653 -19.627374 9.462055 0.473273 15.184728 3.593200 0.925900 5.838600 -5.209539 -4.570600 -0.600015 -48.127081 -37.554877 -0.724636 17.713090 -25.875544 -4.964097 0.911810 -1.801095 -69.013542 18.628263 25.911076 9.456000 -7.125000 0.000000 0.000000 -11.594600 58.343500 -3.817400 7.018293 4.840657 -0.017363 50.032314 32.455144 31.449101 -24.330661 29.740885 -8.725287 -0.122060 1.556179 -36.589857 -11.215279 0.470547 0.186500 7.125000 0.000000 0.000000 11.489400 -30.754200 4.071400 
